<svg width="596.000000pt" height="420.000000pt" viewBox="0 0 596.000000 420.000000" xmlns="http://www.w3.org/2000/svg">
  <g transform="translate(0.000000,420.000000) scale(0.100000,-0.100000)" fill="#fefefe" stroke="none">
    <path d="M0 2100 l0 -2100 2980 0 2980 0 0 2100 0 2100 -2980 0 -2980 0 0
-2100z m3482 150 l106 -100 54 0 54 0 12 -12 12 -12 0 -145 0 -145 42 -43 42
-43 -106 -108 -107 -107 -3 -65 -3 -65 -149 -3 -149 -3 -47 -39 -46 -39 -104
104 -104 104 -65 3 -66 3 -3 155 -3 155 -41 43 -42 42 107 108 107 107 0 63 0
62 153 0 153 0 39 40 c21 22 42 40 45 40 3 0 54 -45 112 -100z m-192 -1010 c0
-13 -20 -13 -40 0 l-15 10 28 0 c15 0 27 -4 27 -10z m-142 -115 l-2 -115 -15
0 -16 0 -2 115 -1 115 19 0 18 0 -1 -115z m-387 -10 l36 -105 -19 0 -18 0 0
17 c0 21 -41 126 -53 134 -9 7 1 59 12 59 3 0 22 -47 42 -105z m259 -12 c0
-42 -3 -73 -7 -69 -4 4 -10 33 -13 65 l-5 58 10 11 c5 6 11 11 13 12 1 0 2
-34 2 -77z m481 -6 c-1 -34 -4 -63 -6 -65 -7 -7 -17 108 -11 124 12 31 19 4
17 -59z m111 -15 c3 -34 1 -57 -3 -50 -12 19 -21 106 -13 120 10 15 12 7 16
-70z m-722 -2 l0 -70 -10 0 -10 0 0 70 0 70 10 0 10 0 0 -70z m65 60 c-3 -5
-12 -10 -18 -10 l-12 0 15 10 c19 12 23 12 15 0z m365 -17 c0 -16 3 -46 5 -68
l6 -40 -9 20 c-5 11 -12 41 -15 68 l-7 47 10 0 c6 0 10 -12 10 -27z m99 -86
l1 -28 -16 16 -16 16 8 57 8 57 7 -45 c4 -25 8 -58 8 -73z m283 46 c2 -38 3
-70 1 -72 -1 -1 -8 2 -15 9 l-13 12 3 59 c2 33 7 59 12 59 5 0 10 -30 12 -67z
m93 -3 l0 -70 -12 0 -13 0 0 70 0 70 13 0 12 0 0 -70z m117 -7 l3 -42 -12 11
c-20 16 -24 43 -12 74 l12 29 3 -15 c2 -8 4 -34 6 -57z m87 25 c1 -5 -3 -8 -9
-8 -5 0 -10 12 -9 28 l0 27 9 -20 c5 -11 9 -23 9 -27z m-932 -80 l-5 -13 -1
19 c-1 11 2 17 5 13 3 -3 4 -12 1 -19z m480 5 c-4 -3 -7 0 -7 7 0 7 3 10 7 7
3 -4 3 -10 0 -14z" />
    <path d="M3185 2032 c-22 -11 -50 -30 -62 -43 -33 -37 -53 -93 -53 -152 l0
-53 23 -44 c12 -24 39 -58 60 -74 l39 -31 77 -3 78 -4 41 21 c69 35 112 111
112 195 l0 41 -24 52 -24 52 -43 28 -42 28 -71 3 -71 3 -40 -19z m128 -29
c-13 -2 -35 -2 -50 0 -16 2 -5 4 22 4 28 0 40 -2 28 -4z m-86 -10 c-4 -3 -10
-3 -14 0 -3 4 0 7 7 7 7 0 10 -3 7 -7z m130 0 c-4 -3 -10 -3 -14 0 -3 4 0 7 7
7 7 0 10 -3 7 -7z m-197 -47 c0 -3 -5 -8 -12 -12 l-11 -7 7 11 c7 12 16 16 16
8z m-37 -89 l-5 -43 15 -37 c9 -20 14 -37 11 -37 -10 0 -34 70 -34 99 0 27 8
61 15 61 1 0 0 -19 -2 -43z m324 26 c-4 -3 -7 0 -7 7 0 7 3 10 7 7 3 -4 3 -10
0 -14z m-140 -77 c-3 -6 -8 1 -12 17 -4 15 -11 27 -16 27 -5 0 -5 8 -2 17 l7
17 13 -33 c8 -18 12 -38 10 -45z m150 17 l-5 -18 0 30 c0 17 2 24 5 18 2 -7 2
-21 0 -30z m-10 -40 c-4 -3 -7 0 -7 7 0 7 3 10 7 7 3 -4 3 -10 0 -14z m-130
-10 c-4 -3 -7 0 -7 7 0 7 3 10 7 7 3 -4 3 -10 0 -14z m-60 -99 c-3 -3 -12 -4
-19 -1 l-13 5 19 1 c11 1 17 -2 13 -5z m80 -1 c-4 -3 -10 -3 -14 0 -3 4 0 7 7
7 7 0 10 -3 7 -7z m-50 -10 c-4 -3 -10 -3 -14 0 -3 4 0 7 7 7 7 0 10 -3 7 -7z" />
  </g>
  <g transform="translate(0.000000,420.000000) scale(0.100000,-0.100000)" fill="#383190" stroke="none">
    <path d="M3270 1878 c0 -12 8 -44 17 -70 l17 -48 18 0 c10 0 18 1 18 3 0 1
-10 31 -23 66 -12 36 -28 66 -34 69 l-13 4 0 -24z" />
    <path d="M2844 1847 c-2 -7 -3 -82 -2 -167 l3 -155 65 -1 65 -2 79 83 78 84
-26 52 c-14 29 -26 68 -26 86 l0 33 -115 0 -116 0 -5 -13z" />
    <path d="M3100 1830 c0 -40 25 -99 45 -106 9 -4 18 -4 21 -2 2 3 -5 25 -16 49
-11 24 -20 54 -20 67 l0 22 -15 0 -15 0 0 -30z" />
    <path d="M3263 1253 c-19 -7 -16 -30 4 -37 l17 -7 13 17 c20 27 1 42 -34 27z" />
    <path d="M3109 1228 c-1 -13 -2 -69 -3 -125 l-2 -103 34 0 33 0 -7 23 c-4 12
-7 68 -5 125 l2 102 -26 0 -25 0 -1 -22z" />
    <path d="M2696 1206 l-6 -24 30 -72 c17 -40 30 -81 30 -91 l0 -19 31 0 30 0
-3 13 c-2 6 -19 58 -37 115 l-35 102 -17 0 -17 0 -6 -24z" />
    <path d="M2994 1176 l-12 -13 7 -64 c7 -66 15 -89 32 -89 l9 0 0 90 0 90 -12
0 c-7 -1 -18 -7 -24 -14z" />
    <path d="M3473 1168 l-11 -13 10 -67 10 -68 14 0 14 0 2 60 c1 33 2 68 2 77 1
22 -27 29 -41 11z" />
    <path d="M3301 1161 l-13 -9 6 -43 c4 -24 9 -56 12 -71 l6 -28 15 0 16 0 -7
46 c-3 26 -6 62 -6 80 0 35 -5 40 -29 25z" />
    <path d="M3585 1159 c-10 -16 5 -125 20 -146 7 -10 15 -16 18 -13 2 3 2 42 -1
88 l-5 82 -13 0 c-7 0 -16 -5 -19 -11z" />
    <path d="M3964 1148 c3 -13 6 -33 6 -45 l0 -23 21 0 22 0 -7 32 c-7 34 -23 58
-38 58 l-10 0 6 -22z" />
    <path d="M2860 1080 l0 -80 26 0 26 0 -6 16 c-3 9 -6 45 -6 80 l0 64 -20 0
-20 0 0 -80z" />
    <path d="M3386 1101 l-7 -60 13 -20 c7 -12 19 -21 27 -21 l14 0 -7 38 c-3 20
-6 56 -6 80 l0 42 -14 0 -13 0 -7 -59z" />
    <path d="M3675 1110 c-4 -27 -4 -63 0 -80 l7 -30 20 0 20 0 -6 23 c-3 12 -6
48 -6 80 l0 57 -14 0 -14 0 -7 -50z" />
    <path d="M3765 1080 l0 -80 24 0 23 0 -6 23 c-3 12 -6 48 -6 80 l0 57 -18 0
-18 0 1 -80z" />
    <path d="M3892 1148 c-6 -7 -13 -29 -17 -49 l-7 -36 25 -29 c14 -16 27 -27 30
-24 8 8 -5 150 -13 150 -4 0 -12 -6 -18 -12z" />
  </g>
  <g transform="translate(0.000000,420.000000) scale(0.100000,-0.100000)" fill="#6e2f90" stroke="none">
    <path d="M2862 2047 c-56 -56 -102 -109 -102 -118 0 -8 20 -34 44 -58 l44 -43
6 11 7 11 108 0 107 0 12 44 c6 24 23 58 38 76 l27 31 -74 75 -73 74 -21 0
-20 0 -103 -103z" />
    <path d="M3142 1958 c-17 -22 -42 -76 -42 -93 0 -8 6 -15 13 -15 10 0 33 40
65 113 6 12 -25 8 -36 -5z" />
    <path d="M3304 1821 c1 -15 6 -28 12 -28 l11 0 -5 24 c-6 34 -19 37 -18 4z" />
    <path d="M3100 1799 c0 -15 18 -19 23 -6 l5 14 -14 0 c-8 0 -14 -4 -14 -8z" />
    <path d="M3080 1771 c0 -6 4 -13 10 -16 l10 -6 -6 15 c-7 18 -14 21 -14 7z" />
    <path d="M3136 1754 c-6 -17 0 -34 12 -34 11 0 12 39 2 45 -4 3 -11 -2 -14
-11z" />
    <path d="M3260 1250 c0 -5 4 -10 9 -10 6 0 13 5 16 10 l6 10 -15 0 c-9 0 -16
-4 -16 -10z" />
    <path d="M3100 1195 l0 -55 10 0 c5 0 8 10 6 22 -1 12 0 37 4 55 l8 33 -14 0
-14 0 0 -55z" />
    <path d="M2710 1232 c0 -5 7 -13 16 -16 l16 -6 -4 12 c-5 15 -28 23 -28 10z" />
    <path d="M3280 1225 l-12 -15 10 0 c12 0 26 19 19 26 -2 2 -10 -2 -17 -11z" />
    <path d="M3487 1183 c-11 -11 -8 -20 8 -20 8 0 15 6 15 14 0 14 -12 17 -23 6z" />
    <path d="M2745 1160 c4 -14 12 -29 17 -35 l10 -10 -7 25 c-4 14 -12 30 -17 35
l-10 10 7 -25z" />
    <path d="M2700 1161 c0 -5 5 -13 10 -16 6 -3 10 -2 10 4 0 5 -4 13 -10 16 -5
3 -10 2 -10 -4z" />
    <path d="M2868 1163 c-20 -5 -23 -18 -8 -28 6 -3 10 -1 10 5 l0 12 15 -6 15
-5 0 14 c0 15 -2 16 -32 8z" />
    <path d="M3907 1164 c-8 -8 1 -24 14 -24 5 0 9 7 9 15 0 15 -12 20 -23 9z" />
    <path d="M3670 1124 l0 -35 9 5 c5 3 11 19 13 36 l5 30 -14 0 -13 0 0 -36z" />
    <path d="M3786 1145 c4 -8 10 -15 15 -15 5 0 9 7 9 15 0 8 -7 15 -15 15 l-14
0 5 -15z" />
    <path d="M3470 1120 l0 -24 12 12 12 12 -12 12 -12 12 0 -24z" />
    <path d="M3760 1126 c0 -9 5 -16 10 -16 6 0 10 4 10 9 0 6 -4 13 -10 16 l-10
6 0 -15z" />
    <path d="M3290 1121 c0 -5 5 -13 10 -16 6 -3 10 -2 10 4 0 5 -4 13 -10 16 -5
3 -10 2 -10 -4z" />
    <path d="M3990 1121 c0 -5 5 -13 10 -16 6 -3 10 -2 10 4 0 5 -4 13 -10 16 -5
3 -10 2 -10 -4z" />
    <path d="M2720 1106 c0 -9 5 -16 10 -16 6 0 10 4 10 9 0 6 -4 13 -10 16 l-10
6 0 -15z" />
    <path d="M3580 1096 c0 -9 5 -16 10 -16 6 0 10 4 10 9 0 6 -4 13 -10 16 l-10
6 0 -15z" />
    <path d="M3870 1094 l0 -15 10 6 c6 3 10 10 10 16 0 5 -4 9 -10 9 -5 0 -10 -7
-10 -16z" />
    <path d="M3380 1084 l0 -15 10 6 c6 3 10 10 10 16 0 5 -4 9 -10 9 -5 0 -10 -7
-10 -16z" />
    <path d="M3320 1076 c0 -8 5 -18 10 -21 6 -3 10 1 10 9 0 8 -4 18 -10 21 -5 3
-10 -1 -10 -9z" />
    <path d="M3410 1061 c0 -11 5 -23 10 -26 l10 -6 0 25 c0 14 -4 26 -10 26 -5 0
-10 -9 -10 -19z" />
    <path d="M2740 1061 c0 -5 5 -13 10 -16 6 -3 10 -2 10 4 0 5 -4 13 -10 16 -5
3 -10 2 -10 -4z" />
    <path d="M2785 1045 c4 -11 8 -26 8 -32 0 -7 6 -13 14 -13 18 0 16 11 -8 40
l-21 25 7 -20z" />
    <path d="M2990 1051 c0 -5 5 -13 10 -16 6 -3 10 -2 10 4 0 5 -4 13 -10 16 -5
3 -10 2 -10 -4z" />
    <path d="M3100 1044 l0 -15 10 6 c6 3 10 10 10 16 0 5 -4 9 -10 9 -5 0 -10 -7
-10 -16z" />
    <path d="M3607 1037 l-5 -14 14 0 c8 0 14 6 14 14 0 7 -4 13 -9 13 -5 0 -11
-6 -14 -13z" />
    <path d="M3390 1031 c0 -5 5 -13 10 -16 6 -3 10 -2 10 4 0 5 -4 13 -10 16 -5
3 -10 2 -10 -4z" />
    <path d="M3700 1031 c0 -6 5 -13 10 -16 l10 -6 0 15 c0 9 -4 16 -10 16 -5 0
-10 -4 -10 -9z" />
    <path d="M3760 1024 l0 -15 10 6 c6 3 10 10 10 16 0 5 -4 9 -10 9 -5 0 -10 -7
-10 -16z" />
    <path d="M3790 1031 c0 -5 5 -13 10 -16 6 -3 10 -2 10 4 0 5 -4 13 -10 16 -5
3 -10 2 -10 -4z" />
    <path d="M2627 1023 c-12 -11 -8 -23 8 -23 8 0 15 7 15 15 0 16 -12 20 -23 8z" />
    <path d="M3313 1016 c5 -16 27 -19 27 -3 0 7 -7 14 -15 14 -9 0 -14 -5 -12
-11z" />
    <path d="M3492 1018 c6 -18 28 -21 28 -4 0 9 -7 16 -16 16 -9 0 -14 -5 -12
-12z" />
  </g>
  <g transform="translate(0.000000,420.000000) scale(0.100000,-0.100000)" fill="#f9d811" stroke="none">
    <path d="M3470 2025 l-33 -34 26 -59 c15 -33 27 -65 27 -71 l0 -11 33 0 c18 0
43 -7 55 -16 l22 -15 0 -140 c0 -76 3 -139 8 -139 14 0 202 195 202 211 0 8
-18 33 -40 54 -22 21 -40 44 -40 50 0 16 -194 205 -211 205 -8 0 -30 -16 -49
-35z" />
    <path d="M3402 1952 c2 -4 11 -28 22 -55 l19 -47 14 0 13 0 -6 28 c-10 40 -36
82 -52 82 -8 0 -12 -3 -10 -8z" />
  </g>
  <g transform="translate(0.000000,420.000000) scale(0.100000,-0.100000)" fill="#37b79b" stroke="none">
    <path d="M3376 1711 c-4 -5 -29 -15 -56 -22 l-50 -13 0 -13 0 -14 38 7 c43 7
94 34 100 52 l4 12 -16 0 c-8 0 -17 -4 -20 -9z" />
    <path d="M3385 1664 l-40 -24 -42 0 -43 0 0 -117 c0 -65 4 -124 8 -131 l9 -13
19 7 c28 10 214 196 214 214 0 14 -70 91 -80 89 -3 0 -23 -12 -45 -25z" />
    <path d="M3580 1515 c0 -8 5 -15 10 -15 6 0 10 7 10 15 0 8 -4 15 -10 15 -5 0
-10 -7 -10 -15z" />
    <path d="M3230 1355 l0 -14 15 5 c8 4 15 10 15 15 0 5 -7 9 -15 9 -8 0 -15 -7
-15 -15z" />
  </g>
  <g transform="translate(0.000000,420.000000) scale(0.100000,-0.100000)" fill="#c11d7d" stroke="none">
    <path d="M3128 2282 l-156 -2 -4 -70 -3 -70 15 0 c8 0 50 -35 92 -77 43 -43
78 -71 78 -63 0 8 -14 28 -30 45 l-30 31 100 99 c55 54 99 101 98 104 -2 3
-74 5 -160 3z" />
    <path d="M3183 2043 c-7 -2 -13 -11 -13 -19 l0 -14 25 12 c39 18 28 38 -12 21z" />
    <path d="M3270 2010 c0 -5 7 -10 15 -10 8 0 15 5 15 10 0 6 -7 10 -15 10 -8 0
-15 -4 -15 -10z" />
    <path d="M3183 1993 c-26 -18 -30 -33 -8 -33 8 0 15 5 15 11 0 5 4 8 8 5 13
-8 35 11 28 23 -9 14 -16 13 -43 -6z" />
  </g>
  <g transform="translate(0.000000,420.000000) scale(0.100000,-0.100000)" fill="#f0682a" stroke="none">
    <path d="M3370 2352 c0 -13 64 -72 78 -72 7 0 12 2 12 5 0 7 -74 74 -82 75 -5
0 -8 -4 -8 -8z" />
    <path d="M3480 2248 c0 -7 15 -27 33 -46 l32 -34 -128 4 -127 3 0 -45 c0 -25
-3 -54 -6 -66 l-6 -21 42 -6 c23 -3 60 -17 82 -32 l40 -27 37 36 c20 20 41 36
47 36 18 0 74 65 74 86 l0 20 -53 52 c-29 29 -56 52 -60 52 -4 0 -7 -5 -7 -12z" />
    <path d="M3290 2006 l0 -13 31 -7 c17 -3 43 -15 59 -26 l29 -20 6 10 c4 6 2
17 -5 25 -15 18 -74 45 -99 45 l-21 0 0 -14z" />
  </g>
  <g transform="translate(0.000000,420.000000) scale(0.100000,-0.100000)" fill="#1267b0" stroke="none">
    <path d="M3155 1730 c-15 -24 52 -70 100 -70 l27 0 -4 11 c-2 6 -21 17 -42 24
-20 7 -46 21 -56 30 l-18 16 -7 -11z" />
    <path d="M3040 1614 l-84 -85 15 -10 c8 -5 78 -9 156 -9 l141 0 4 64 3 64 -38
5 c-21 3 -53 17 -72 31 -18 14 -35 26 -38 26 -2 0 -41 -39 -87 -86z" />
  </g>
  <g transform="translate(0.000000,420.000000) scale(0.100000,-0.100000)" fill="#c42259" stroke="none">
    <path d="M3182 2187 c-56 -56 -102 -106 -102 -111 0 -5 15 -26 34 -46 l34 -38
20 18 c11 10 23 16 26 13 3 -4 6 -2 6 4 0 6 6 11 13 10 6 0 28 1 48 1 l36 2 3
63 c2 34 4 89 5 121 l0 59 -10 3 c-5 2 -56 -43 -113 -99z" />
    <path d="M3204 2004 c-17 -8 -31 -22 -31 -30 l0 -15 16 3 16 4 -1 17 -2 18 12
-9 11 -9 40 6 c22 3 41 11 42 17 l2 11 -37 1 c-20 1 -51 -5 -68 -14z" />
  </g>
  <g transform="translate(0.000000,420.000000) scale(0.100000,-0.100000)" fill="#8cc73d" stroke="none">
    <path d="M3490 1839 c0 -36 -21 -95 -45 -125 l-23 -28 71 -78 70 -78 23 0 24
0 0 149 0 150 -22 15 c-12 9 -39 16 -60 16 l-38 0 0 -21z" />
    <path d="M3435 1813 c-4 -21 -16 -50 -26 -65 -11 -15 -17 -33 -14 -38 l7 -11
15 13 c21 17 52 87 53 116 l0 22 -14 0 -14 0 -7 -37z" />
  </g>
  <g transform="translate(0.000000,420.000000) scale(0.100000,-0.100000)" fill="#f5921e" stroke="none">
    <path d="M3590 2141 l0 -19 -79 -70 c-44 -39 -77 -72 -75 -75 3 -3 23 14 44
37 l39 41 106 -105 105 -105 0 146 0 145 -12 12 -12 12 -58 0 -58 0 0 -19z" />
    <path d="M3385 1958 c11 -7 26 -13 33 -14 14 -3 16 12 2 21 -5 3 -10 1 -10 -6
l0 -13 -12 12 c-7 7 -17 12 -22 12 -6 0 -2 -6 9 -12z" />
  </g>
  <g transform="translate(0.000000,420.000000) scale(0.100000,-0.100000)" fill="#06a1c7" stroke="none">
    <path d="M3080 1415 c58 -58 110 -105 117 -105 6 0 21 12 32 26 12 15 21 23
21 19 0 -5 9 0 20 10 l19 18 -9 18 c-6 10 -10 40 -10 68 l0 51 -147 0 -148 0
105 -105z" />
  </g>
  <g transform="translate(0.000000,420.000000) scale(0.100000,-0.100000)" fill="#1bab4b" stroke="none">
    <path d="M3400 1497 l-105 -108 150 3 150 3 2 73 1 72 -11 0 c-6 0 -27 15 -47
33 l-35 32 -105 -108z" />
  </g>
  <g transform="translate(0.000000,420.000000) scale(0.100000,-0.100000)" fill="#ea1f24" stroke="none">
    <path d="M3317 2322 l-37 -38 9 -9 c6 -6 11 -32 13 -60 l3 -50 124 -3 c69 -1
132 0 140 3 l15 6 -64 64 c-35 35 -66 62 -70 60 -4 -2 -22 11 -40 30 -19 19
-39 35 -45 35 -6 0 -28 -17 -48 -38z m213 -107 c19 -19 32 -35 29 -35 -3 0
-20 16 -39 35 -19 19 -32 35 -29 35 3 0 20 -16 39 -35z" />
  </g>
  <g transform="translate(0.000000,420.000000) scale(0.100000,-0.100000)" fill="#dcd9e6" stroke="none">
    <path d="M3334 2338 l-19 -23 23 19 c12 11 22 21 22 23 0 8 -8 2 -26 -19z" />
    <path d="M3284 2288 l-7 -11 11 7 c7 4 12 9 12 12 0 8 -9 4 -16 -8z" />
    <path d="M2909 2093 l-24 -28 28 24 c25 23 32 31 24 31 -2 0 -14 -12 -28 -27z" />
    <path d="M2844 2028 l-29 -33 33 29 c30 28 37 36 29 36 -2 0 -16 -15 -33 -32z" />
    <path d="M3258 2043 c7 -3 16 -2 19 1 4 3 -2 6 -13 5 l-19 -1 13 -5z" />
    <path d="M3213 2033 c4 -3 10 -3 14 0 3 4 0 7 -7 7 -7 0 -10 -3 -7 -7z" />
    <path d="M3172 1984 c-33 -26 -68 -81 -58 -92 3 -3 6 -1 6 4 0 6 7 19 16 30
l16 19 -6 -19 -6 -19 15 13 16 13 -13 8 -12 8 17 7 c9 3 15 10 12 14 -3 4 10
15 28 24 17 8 25 16 17 16 -8 0 -30 -12 -48 -26z" />
    <path d="M3116 1969 c-14 -17 -26 -36 -26 -42 0 -7 6 -3 12 8 6 11 20 30 31
43 11 12 18 22 15 22 -4 0 -18 -14 -32 -31z" />
    <path d="M3268 1993 c6 -2 18 -2 25 0 6 3 1 5 -13 5 -14 0 -19 -2 -12 -5z" />
    <path d="M2760 1922 c0 -5 18 -26 40 -47 l40 -39 2 -66 2 -65 3 63 4 64 -45
48 c-26 27 -46 46 -46 42z" />
    <path d="M3275 1900 c-3 -5 -1 -10 4 -10 6 0 11 5 11 10 0 6 -2 10 -4 10 -3 0
-8 -4 -11 -10z" />
    <path d="M3126 1885 c-3 -8 -1 -15 4 -15 6 0 10 7 10 15 0 8 -2 15 -4 15 -2 0
-6 -7 -10 -15z" />
    <path d="M3100 1865 c0 -8 4 -15 10 -15 5 0 7 7 4 15 -4 8 -8 15 -10 15 -2 0
-4 -7 -4 -15z" />
    <path d="M3260 1855 c0 -8 5 -15 11 -15 6 0 9 -6 7 -12 -4 -12 14 -38 25 -38
3 0 -2 18 -10 40 -16 40 -33 53 -33 25z" />
    <path d="M3303 1840 c6 -16 13 -28 15 -26 6 6 -10 56 -18 56 -5 0 -3 -13 3
-30z" />
    <path d="M3461 1824 l1 -19 5 13 c3 7 2 16 -1 19 -3 4 -6 -2 -5 -13z" />
    <path d="M3227 1785 l-18 -25 22 0 21 0 -5 14 c-3 7 0 19 6 25 l11 11 -9 0
c-6 0 -18 -12 -28 -25z" />
    <path d="M3324 1786 l6 -18 -13 5 c-8 3 -20 1 -28 -4 l-14 -9 45 0 45 0 -14 9
c-7 5 -18 15 -23 22 l-10 14 6 -19z" />
    <path d="M3481 1793 c-1 -6 -4 -20 -7 -30 l-6 -18 12 18 c6 10 9 23 6 30 l-4
12 -1 -12z" />
    <path d="M3397 1735 l-28 -35 16 6 c8 4 15 3 15 0 0 -4 -19 -16 -42 -26 -24
-11 -37 -20 -30 -20 21 0 65 26 91 54 l24 26 -12 0 -13 0 6 15 c3 8 4 15 3 15
-1 0 -14 -16 -30 -35z m15 -17 l-12 -12 0 10 c0 14 12 26 19 19 2 -3 -1 -11
-7 -17z" />
    <path d="M3120 1746 c0 -2 7 -9 15 -16 l15 -13 -6 17 c-3 9 -10 16 -15 16 -5
0 -9 -2 -9 -4z" />
    <path d="M3160 1736 c0 -2 8 -10 18 -17 l17 -14 -14 18 c-13 16 -21 21 -21 13z" />
    <path d="M3454 1728 l-7 -11 11 7 c12 7 16 16 8 16 -3 0 -8 -5 -12 -12z" />
    <path d="M3427 1692 l-17 -19 15 0 c8 0 13 3 10 5 -3 3 0 11 6 19 17 20 5 16
-14 -5z" />
    <path d="M3130 1696 c0 -2 8 -10 18 -17 l17 -14 -14 18 c-13 16 -21 21 -21 13z" />
    <path d="M3197 1679 c7 -7 15 -10 18 -7 3 3 -2 9 -12 12 l-18 7 12 -12z" />
    <path d="M3248 1683 c7 -3 16 -2 19 1 4 3 -2 6 -13 5 l-19 -1 13 -5z" />
    <path d="M3318 1683 c7 -3 16 -2 19 1 4 3 -2 6 -13 5 l-19 -1 13 -5z" />
    <path d="M3353 1643 c4 -3 10 -3 14 0 3 4 0 7 -7 7 -7 0 -10 -3 -7 -7z" />
    <path d="M3248 1633 c7 -3 16 -2 19 1 4 3 -2 6 -13 5 l-19 -1 13 -5z" />
    <path d="M3060 1435 c13 -14 26 -25 28 -25 3 0 -5 11 -18 25 -13 14 -26 25
-28 25 -3 0 5 -11 18 -25z" />
    <path d="M3373 1393 c43 -2 110 -2 150 0 40 1 5 3 -78 3 -82 0 -115 -2 -72 -3z" />
    <path d="M3120 1377 c0 -2 15 -16 33 -33 l32 -29 -29 33 c-28 30 -36 37 -36
29z" />
    <path d="M3200 1320 l-15 -10 12 0 c6 0 15 5 18 10 8 12 4 12 -15 0z" />
    <path d="M3082 1251 l-14 -8 21 -6 21 -5 0 14 c0 16 -9 18 -28 5z" />
    <path d="M3293 1245 c0 -8 4 -12 9 -9 5 3 6 10 3 15 -9 13 -12 11 -12 -6z" />
    <path d="M2689 1183 c-12 -38 -22 -75 -22 -83 0 -8 -6 -21 -14 -28 -12 -12
-18 -34 -14 -55 1 -5 -3 -6 -9 -2 -5 3 -18 1 -27 -4 l-18 -10 47 -1 c26 0 50
5 53 10 l6 10 -21 0 -21 0 7 23 c3 12 11 28 16 35 12 14 58 16 58 2 0 -5 5
-10 10 -10 l11 0 -10 19 -10 18 -27 -5 -27 -5 6 17 c4 10 7 22 7 27 0 5 5 9
10 9 6 0 10 -7 10 -15 0 -8 4 -15 9 -15 l10 0 -13 33 -14 32 10 25 11 25 9
-34 c5 -18 12 -31 15 -28 7 8 -17 77 -27 77 -5 0 -18 -30 -31 -67z" />
    <path d="M3150 1242 c0 -5 14 -7 30 -4 17 2 30 6 30 8 0 2 -13 4 -30 4 -16 0
-30 -4 -30 -8z" />
    <path d="M3013 1210 l-10 -25 11 -7 11 -7 3 14 c2 8 2 23 -1 33 l-4 17 -10
-25z" />
    <path d="M3152 1180 c0 -14 2 -19 5 -12 2 6 2 18 0 25 -3 6 -5 1 -5 -13z" />
    <path d="M3475 1170 l-19 -21 16 6 c9 4 19 13 22 21 7 19 2 18 -19 -6z" />
    <path d="M2891 1130 l1 -35 5 20 c3 11 12 28 20 37 l15 17 -21 -2 -21 -1 1
-36z" />
    <path d="M2953 1159 c-30 -9 -42 -27 -27 -41 9 -9 64 25 64 40 0 6 -1 12 -2
11 -2 0 -18 -5 -35 -10z" />
    <path d="M3306 1162 c-3 -5 1 -9 9 -9 8 0 15 4 15 9 0 4 -4 8 -9 8 -6 0 -12
-4 -15 -8z" />
    <path d="M3510 1155 l0 -13 20 5 c11 3 20 7 20 8 0 1 -9 5 -20 8 l-20 5 0 -13z" />
    <path d="M3770 1158 l-20 -7 7 -18 7 -18 4 18 4 19 18 -5 c11 -3 27 1 37 8
l18 13 -28 -1 c-15 -1 -37 -5 -47 -9z" />
    <path d="M3894 1148 l-19 -23 16 13 c9 6 18 10 21 7 2 -3 5 2 5 10 0 8 -1 15
-2 15 -1 0 -10 -10 -21 -22z" />
    <path d="M3960 1162 c0 -5 7 -9 15 -9 8 0 12 4 9 9 -3 4 -9 8 -15 8 -5 0 -9
-4 -9 -8z" />
    <path d="M2830 1150 c0 -5 5 -10 11 -10 5 0 7 5 4 10 -3 6 -8 10 -11 10 -2 0
-4 -4 -4 -10z" />
    <path d="M3210 1149 l0 -11 -30 4 -30 5 0 -17 0 -17 30 5 30 4 0 -16 c0 -9 4
-16 9 -16 5 0 9 16 9 35 0 19 -4 35 -9 35 -5 0 -9 -5 -9 -11z" />
    <path d="M3665 1150 c3 -5 8 -10 11 -10 2 0 4 5 4 10 0 6 -5 10 -11 10 -5 0
-7 -4 -4 -10z" />
    <path d="M3838 1149 c-25 -14 -22 -31 4 -27 l23 3 3 18 c4 19 -5 21 -30 6z" />
    <path d="M3023 1115 l0 -40 4 23 c2 12 2 30 0 40 -3 9 -5 -1 -4 -23z" />
    <path d="M3577 1130 c3 -11 7 -20 9 -20 2 0 4 9 4 20 0 11 -4 20 -9 20 -5 0
-7 -9 -4 -20z" />
    <path d="M2862 1120 c0 -14 2 -19 5 -12 2 6 2 18 0 25 -3 6 -5 1 -5 -13z" />
    <path d="M3911 1103 l-1 -32 15 5 c16 7 21 24 6 24 -5 0 -12 8 -14 18 l-5 17
-1 -32z" />
    <path d="M4000 1104 l0 -15 -20 6 -20 6 0 -10 c0 -6 11 -11 25 -11 l25 0 0 20
c0 11 -2 20 -5 20 -3 0 -5 -7 -5 -16z" />
    <path d="M3672 1080 c0 -14 2 -19 5 -12 2 6 2 18 0 25 -3 6 -5 1 -5 -13z" />
    <path d="M2992 1070 c0 -14 2 -19 5 -12 2 6 2 18 0 25 -3 6 -5 1 -5 -13z" />
    <path d="M2776 1065 c4 -8 8 -15 10 -15 2 0 4 7 4 15 0 8 -4 15 -10 15 -5 0
-7 -7 -4 -15z" />
    <path d="M2861 1064 l1 -19 5 13 c3 7 2 16 -1 19 -3 4 -6 -2 -5 -13z" />
    <path d="M2892 1060 c0 -14 2 -19 5 -12 2 6 2 18 0 25 -3 6 -5 1 -5 -13z" />
    <path d="M3381 1064 l1 -19 5 13 c3 7 2 16 -1 19 -3 4 -6 -2 -5 -13z" />
    <path d="M3301 1054 l1 -19 5 13 c3 7 2 16 -1 19 -3 4 -6 -2 -5 -13z" />
    <path d="M3984 1048 l1 -23 -23 -3 -22 -3 -6 15 c-3 9 -10 16 -15 16 -4 0 -5
-7 -2 -17 l6 -16 -14 8 -14 9 14 -17 c7 -9 26 -17 41 -17 l27 0 18 20 17 19
-5 16 c-9 23 -24 18 -23 -7z" />
    <path d="M3590 1049 c0 -8 6 -24 14 -35 l15 -19 10 10 10 10 -9 15 -10 15 -1
-20 -1 -20 -13 30 c-8 17 -14 23 -15 14z" />
    <path d="M3020 1034 l0 -19 -10 15 -10 15 0 -12 c0 -19 20 -26 26 -8 4 9 4 19
0 22 -3 4 -6 -2 -6 -13z" />
    <path d="M3097 1030 c-3 -11 -1 -20 4 -20 5 0 9 9 9 20 0 11 -2 20 -4 20 -2 0
-6 -9 -9 -20z" />
    <path d="M3481 1040 c-2 -35 51 -54 76 -29 l12 12 -15 14 c-15 16 -35 9 -30
-10 1 -7 1 -9 -1 -4 -3 4 -11 7 -18 7 -7 0 -16 6 -18 13 l-5 12 -1 -15z" />
    <path d="M2860 1030 c0 -5 -11 -10 -25 -10 -14 0 -25 -4 -25 -10 0 -5 15 -10
34 -10 l34 0 -5 20 c-6 21 -13 27 -13 10z" />
    <path d="M3042 1028 c6 -18 28 -21 28 -4 0 9 -7 16 -16 16 -9 0 -14 -5 -12
-12z" />
    <path d="M3366 1024 c-9 -24 -8 -25 14 -12 23 15 26 28 6 28 -8 0 -17 -7 -20
-16z" />
    <path d="M3418 1022 l-6 -22 24 0 c13 0 24 5 24 10 0 6 -6 10 -14 10 -8 0 -16
6 -18 12 l-4 12 -6 -22z" />
    <path d="M3670 1031 c0 -6 5 -13 10 -16 l10 -6 0 15 c0 9 -4 16 -10 16 -5 0
-10 -4 -10 -9z" />
    <path d="M3800 1015 l0 -15 20 0 c11 0 20 2 20 5 0 2 -9 9 -20 15 l-20 11 0
-16z" />
    <path d="M2900 1010 c0 -5 7 -10 15 -10 8 0 15 5 15 10 0 6 -7 10 -15 10 -8 0
-15 -4 -15 -10z" />
    <path d="M3145 1010 l-20 -9 28 0 c15 -1 27 4 27 9 0 12 -8 12 -35 0z" />
    <path d="M3720 1010 c0 -5 14 -10 31 -10 l30 0 -6 10 c-3 6 -17 10 -31 10 -13
0 -24 -4 -24 -10z" />
    <path d="M2723 1003 c4 -3 10 -3 14 0 3 4 0 7 -7 7 -7 0 -10 -3 -7 -7z" />
  </g>
  <g transform="translate(0.000000,420.000000) scale(0.100000,-0.100000)" fill="#f6f6f9" stroke="none">
    <path d="M3450 2297 c0 -1 35 -36 78 -77 l77 -75 -75 78 c-69 71 -80 82 -80
74z" />
    <path d="M2973 2273 c4 -3 10 -3 14 0 3 4 0 7 -7 7 -7 0 -10 -3 -7 -7z" />
    <path d="M2955 2140 c-3 -5 -2 -10 4 -10 5 0 13 5 16 10 3 6 2 10 -4 10 -5 0
-13 -4 -16 -10z" />
    <path d="M3225 2010 l-6 -10 15 6 c18 7 21 14 7 14 -6 0 -13 -4 -16 -10z" />
    <path d="M3320 2017 c0 -3 15 -10 32 -16 18 -6 28 -7 23 -2 -12 10 -55 25 -55
18z" />
    <path d="M3223 1983 c4 -3 10 -3 14 0 3 4 0 7 -7 7 -7 0 -10 -3 -7 -7z" />
    <path d="M3365 1970 c3 -5 8 -10 11 -10 3 0 2 5 -1 10 -3 6 -8 10 -11 10 -3 0
-2 -4 1 -10z" />
    <path d="M3130 1939 c0 -5 5 -7 10 -4 6 3 10 8 10 11 0 2 -4 4 -10 4 -5 0 -10
-5 -10 -11z" />
    <path d="M3460 1945 c0 -5 5 -17 10 -25 5 -8 10 -10 10 -5 0 6 -5 17 -10 25
-5 8 -10 11 -10 5z" />
    <path d="M3436 1927 c3 -10 9 -15 12 -12 3 3 0 11 -7 18 l-12 12 7 -18z" />
    <path d="M3106 1893 c-10 -10 -7 -25 3 -19 5 4 11 1 13 -6 l4 -12 6 9 c7 12
-17 37 -26 28z" />
    <path d="M3290 1870 c0 -5 5 -10 11 -10 5 0 7 5 4 10 -3 6 -8 10 -11 10 -2 0
-4 -4 -4 -10z" />
    <path d="M3260 1846 c0 -2 7 -6 15 -10 8 -3 15 -1 15 4 0 6 -7 10 -15 10 -8 0
-15 -2 -15 -4z" />
    <path d="M3305 1840 c3 -5 8 -10 11 -10 3 0 2 5 -1 10 -3 6 -8 10 -11 10 -3 0
-2 -4 1 -10z" />
    <path d="M3245 1819 c-10 -15 3 -25 16 -12 l11 11 -10 6 c-6 3 -14 1 -17 -5z" />
    <path d="M3120 1815 c1 -6 7 -21 16 -35 l15 -25 -7 25 c-3 14 -10 29 -15 35
l-9 9 0 -9z" />
    <path d="M3435 1809 c-4 -6 -5 -12 -2 -15 2 -3 7 2 10 11 7 17 1 20 -8 4z" />
    <path d="M3456 1803 l-7 -18 12 12 c7 7 10 15 7 18 -3 3 -9 -2 -12 -12z" />
    <path d="M3100 1808 c0 -17 23 -68 31 -68 5 0 2 15 -7 33 -18 34 -24 44 -24
35z" />
    <path d="M3295 1790 c3 -5 8 -10 11 -10 2 0 4 5 4 10 0 6 -5 10 -11 10 -5 0
-7 -4 -4 -10z" />
    <path d="M3222 1778 l-10 -13 24 -1 25 -2 -12 14 c-6 8 -13 14 -14 14 -1 0 -7
-6 -13 -12z" />
    <path d="M3474 1768 l-7 -11 11 7 c7 4 12 9 12 12 0 8 -9 4 -16 -8z" />
    <path d="M3410 1750 c0 -7 3 -10 7 -7 3 4 3 10 0 14 -4 3 -7 0 -7 -7z" />
    <path d="M3796 1733 l-7 -18 12 12 c7 7 10 15 7 18 -3 3 -9 -2 -12 -12z" />
    <path d="M3450 1720 c0 -7 3 -10 7 -7 3 4 3 10 0 14 -4 3 -7 0 -7 -7z" />
    <path d="M3191 1706 c2 -2 15 -9 29 -15 l25 -12 -19 15 c-11 9 -24 16 -30 16
-5 0 -7 -2 -5 -4z" />
    <path d="M3335 1690 l-6 -10 15 6 c18 7 21 14 7 14 -6 0 -13 -4 -16 -10z" />
    <path d="M3265 1683 l6 -13 -11 0 c-6 0 -8 -4 -5 -10 8 -14 42 -13 51 1 l7 12
-14 -5 c-8 -3 -20 2 -27 11 -8 9 -11 10 -7 4z" />
    <path d="M3373 1683 c4 -3 10 -3 14 0 3 4 0 7 -7 7 -7 0 -10 -3 -7 -7z" />
    <path d="M3344 1668 l-7 -11 11 7 c7 4 12 9 12 12 0 8 -9 4 -16 -8z" />
    <path d="M3160 1666 c0 -2 7 -7 16 -10 l15 -6 -6 10 c-6 10 -25 14 -25 6z" />
    <path d="M3365 1650 l-6 -10 15 6 c18 7 21 14 7 14 -6 0 -13 -4 -16 -10z" />
    <path d="M3273 1633 c9 -2 25 -2 35 0 9 3 1 5 -18 5 -19 0 -27 -2 -17 -5z" />
    <path d="M2840 1541 c0 -10 19 -25 25 -20 1 2 -3 10 -11 17 l-14 13 0 -10z" />
    <path d="M3269 1373 l-24 -28 28 24 c25 23 32 31 24 31 -2 0 -14 -12 -28 -27z" />
    <path d="M3099 1218 l6 -43 3 33 c2 17 8 32 13 32 6 0 7 5 4 10 -3 6 -12 10
-18 10 l-13 0 5 -42z" />
    <path d="M3225 1250 c-3 -5 5 -15 19 -21 29 -13 40 -39 31 -69 l-6 -20 10 0
c6 0 11 -6 11 -14 0 -8 4 -18 10 -21 l10 -6 -9 23 c-4 13 -6 35 -4 50 l4 27
-22 20 -22 20 24 10 24 10 -37 0 c-20 1 -40 -3 -43 -9z" />
    <path d="M2705 1231 l-5 -10 19 2 c11 0 17 5 15 9 -7 11 -22 10 -29 -1z" />
    <path d="M3015 1219 c-4 -6 -5 -12 -2 -15 2 -3 7 2 10 11 7 17 1 20 -8 4z" />
    <path d="M2695 1200 c-3 -5 -1 -10 4 -10 6 0 11 5 11 10 0 6 -2 10 -4 10 -3 0
-8 -4 -11 -10z" />
    <path d="M2730 1200 c0 -5 5 -10 11 -10 5 0 7 5 4 10 -3 6 -8 10 -11 10 -2 0
-4 -4 -4 -10z" />
    <path d="M3496 1202 c-4 -6 -3 -20 2 -29 5 -10 7 -25 4 -33 l-4 -15 11 11 12
11 -8 34 -9 33 -8 -12z" />
    <path d="M2982 1162 l-23 -27 3 15 3 15 -30 2 c-16 1 -22 -1 -12 -3 9 -3 17
-13 17 -22 l0 -17 -10 15 c-5 8 -10 11 -10 5 0 -5 5 -17 10 -25 l9 -15 43 43
c24 23 38 42 33 42 -6 0 -20 -13 -33 -28z" />
    <path d="M2686 1172 c-3 -6 -1 -14 5 -17 15 -10 25 3 12 16 l-11 11 -6 -10z" />
    <path d="M3930 1172 c-8 -4 -16 -16 -18 -27 l-3 -20 14 18 c8 9 22 17 31 17
l17 0 -6 10 c-7 11 -13 12 -35 2z" />
    <path d="M3578 1163 c-10 -2 -18 -9 -18 -14 0 -13 13 -11 36 6 19 14 14 17
-18 8z" />
    <path d="M3824 1158 l-7 -11 11 7 c12 7 16 16 8 16 -3 0 -8 -5 -12 -12z" />
    <path d="M3841 1143 l-12 -25 16 6 c9 3 19 6 21 6 2 0 4 6 4 14 0 26 -17 26
-29 -1z" />
    <path d="M2839 1147 l9 -9 19 11 18 10 -27 -1 -28 -2 9 -9z" />
    <path d="M3100 1151 c0 -5 5 -13 10 -16 6 -3 10 -2 10 4 0 5 -4 13 -10 16 -5
3 -10 2 -10 -4z" />
    <path d="M3216 1149 l7 -12 -36 5 c-20 2 -34 1 -31 -3 2 -4 0 -10 -6 -14 -5
-3 -10 -12 -10 -18 l1 -12 13 18 c14 18 56 24 56 7 0 -5 5 -10 10 -10 6 0 10
11 10 25 0 14 -5 25 -11 25 l-10 0 7 -11z" />
    <path d="M3370 1156 c0 -2 7 -9 15 -16 l15 -12 0 16 c0 9 -7 16 -15 16 -8 0
-15 -2 -15 -4z" />
    <path d="M3410 1149 c0 -5 5 -7 10 -4 6 3 10 8 10 11 0 2 -4 4 -10 4 -5 0 -10
-5 -10 -11z" />
    <path d="M3755 1150 c-3 -5 -1 -10 4 -10 6 0 11 5 11 10 0 6 -2 10 -4 10 -3 0
-8 -4 -11 -10z" />
    <path d="M3468 1110 c2 -22 9 -43 15 -47 l10 -6 -6 17 c-4 10 -7 31 -7 47 0
16 -3 29 -8 29 -4 0 -6 -18 -4 -40z" />
    <path d="M3672 1120 c0 -19 2 -27 5 -17 2 9 2 25 0 35 -3 9 -5 1 -5 -18z" />
    <path d="M3797 1143 c-4 -3 -7 -11 -7 -17 l0 -10 12 12 c6 6 9 14 7 17 -3 3
-9 2 -12 -2z" />
    <path d="M2675 1130 c3 -5 8 -10 11 -10 2 0 4 5 4 10 0 6 -5 10 -11 10 -5 0
-7 -4 -4 -10z" />
    <path d="M2715 1120 c3 -5 8 -10 11 -10 2 0 4 5 4 10 0 6 -5 10 -11 10 -5 0
-7 -4 -4 -10z" />
    <path d="M2760 1121 c0 -5 5 -13 10 -16 6 -3 10 -2 10 4 0 5 -4 13 -10 16 -5
3 -10 2 -10 -4z" />
    <path d="M3760 1075 l0 -56 10 6 c6 3 10 26 10 50 0 24 -4 47 -10 50 l-10 6 0
-56z" />
    <path d="M3387 1114 c-4 -4 -7 -14 -7 -23 l0 -15 11 11 c6 6 10 16 7 23 -2 6
-7 8 -11 4z" />
    <path d="M3877 1113 c-10 -9 -9 -51 1 -57 4 -2 8 11 8 30 0 19 -1 34 -1 34 -1
0 -5 -3 -8 -7z" />
    <path d="M3580 1098 c0 -9 5 -20 10 -23 13 -8 13 5 0 25 l-10 15 0 -17z" />
    <path d="M2660 1084 l0 -15 10 6 c6 3 10 10 10 16 0 5 -4 9 -10 9 -5 0 -10 -7
-10 -16z" />
    <path d="M3411 1088 c0 -7 4 -22 9 -33 l9 -20 0 27 c1 15 -3 30 -9 33 -5 3
-10 0 -9 -7z" />
    <path d="M3916 1092 c-2 -4 9 -9 25 -10 16 -1 29 2 29 8 0 12 -47 14 -54 2z" />
    <path d="M2770 1080 c0 -5 5 -10 11 -10 5 0 7 5 4 10 -3 6 -8 10 -11 10 -2 0
-4 -4 -4 -10z" />
    <path d="M3140 1078 c0 -7 5 -20 10 -28 l10 -15 0 22 c0 12 -4 25 -10 28 -5 3
-10 0 -10 -7z" />
    <path d="M3328 1063 l6 -28 4 19 c2 10 0 22 -6 28 l-10 10 6 -29z" />
    <path d="M2735 1070 c3 -5 8 -10 11 -10 2 0 4 5 4 10 0 6 -5 10 -11 10 -5 0
-7 -4 -4 -10z" />
    <path d="M3107 1063 c-4 -3 -7 -11 -7 -17 l0 -10 12 12 c6 6 9 14 7 17 -3 3
-9 2 -12 -2z" />
    <path d="M3960 1050 c0 -11 4 -20 9 -20 5 0 11 9 14 20 l5 20 -14 0 -14 0 0
-20z" />
    <path d="M2645 1050 c3 -5 8 -10 11 -10 3 0 2 5 -1 10 -3 6 -8 10 -11 10 -3 0
-2 -4 1 -10z" />
    <path d="M2786 1047 c3 -10 9 -15 12 -12 3 3 0 11 -7 18 l-12 12 7 -18z" />
    <path d="M2990 1051 c0 -6 4 -13 10 -16 l10 -6 -6 15 c-7 18 -14 21 -14 7z" />
    <path d="M3610 1051 c0 -5 5 -13 10 -16 6 -3 10 -2 10 4 0 5 -4 13 -10 16 -5
3 -10 2 -10 -4z" />
    <path d="M3667 1053 c-5 -7 -5 -17 -2 -23 l6 -10 -15 0 c-9 0 -16 -4 -16 -10
0 -14 13 -13 28 2 l12 12 0 -12 c0 -7 5 -12 11 -12 l11 0 -10 13 c-5 6 -12 21
-14 32 l-3 20 -8 -12z" />
    <path d="M3910 1050 c0 -5 5 -10 11 -10 5 0 7 5 4 10 -3 6 -8 10 -11 10 -2 0
-4 -4 -4 -10z" />
    <path d="M3053 1043 c-7 -2 -13 -9 -13 -14 0 -6 5 -7 12 -3 l11 7 -6 -11 c-4
-5 -16 -8 -27 -5 l-20 5 0 -10 c0 -5 10 -10 23 -10 12 0 27 -1 32 -2 22 -5 45
1 45 11 l0 11 -15 -6 -15 -5 0 19 c0 20 -5 23 -27 13z" />
    <path d="M3538 1045 c-3 -3 -16 -8 -28 -10 -40 -8 -33 -13 15 -13 l46 1 -4 10
c-4 13 -21 20 -29 12z" />
    <path d="M3700 1043 c0 -15 26 -46 36 -42 5 2 -1 15 -13 28 -13 13 -23 20 -23
14z" />
    <path d="M3990 1039 c0 -5 5 -7 10 -4 6 3 10 8 10 11 0 2 -4 4 -10 4 -5 0 -10
-5 -10 -11z" />
    <path d="M3595 1030 c3 -5 8 -10 11 -10 3 0 2 5 -1 10 -3 6 -8 10 -11 10 -3 0
-2 -4 1 -10z" />
    <path d="M2740 1015 l-12 -15 16 0 c9 0 16 7 16 15 0 8 -2 15 -4 15 -2 0 -9
-7 -16 -15z" />
    <path d="M3310 1021 c0 -6 4 -13 10 -16 l10 -6 -6 15 c-7 18 -14 21 -14 7z" />
    <path d="M3920 1017 l0 -14 30 0 c33 0 29 10 -7 22 l-23 6 0 -14z" />
    <path d="M2617 1008 c6 -10 60 -10 67 0 2 4 -13 8 -34 7 -21 0 -36 -3 -33 -7z" />
    <path d="M3165 1010 c3 -5 13 -10 21 -10 8 0 12 5 9 10 -3 6 -13 10 -21 10 -8
0 -12 -4 -9 -10z" />
    <path d="M3340 1010 c0 -5 7 -10 15 -10 8 0 15 5 15 10 0 6 -7 10 -15 10 -8 0
-15 -4 -15 -10z" />
    <path d="M3430 1010 c0 -6 7 -10 15 -10 8 0 15 2 15 4 0 2 -7 6 -15 10 -8 3
-15 1 -15 -4z" />
    <path d="M3525 1010 c-3 -5 -1 -10 4 -10 6 0 11 5 11 10 0 6 -2 10 -4 10 -3 0
-8 -4 -11 -10z" />
    <path d="M3825 1010 c3 -5 8 -10 11 -10 3 0 2 5 -1 10 -3 6 -8 10 -11 10 -3 0
-2 -4 1 -10z" />
    <path d="M2778 1003 c6 -2 18 -2 25 0 6 3 1 5 -13 5 -14 0 -19 -2 -12 -5z" />
  </g>
  <g transform="translate(0.000000,420.000000) scale(0.100000,-0.100000)" fill="#c0c0da" stroke="none">
    <path d="M2879 2063 l-14 -18 18 14 c16 13 21 21 13 21 -2 0 -10 -8 -17 -17z" />
    <path d="M2804 1988 l-19 -23 23 19 c12 11 22 21 22 23 0 8 -8 2 -26 -19z" />
    <path d="M3144 1998 l-7 -11 11 7 c7 4 12 9 12 12 0 8 -9 4 -16 -8z" />
    <path d="M2765 1949 c-4 -6 -5 -12 -2 -15 2 -3 7 2 10 11 7 17 1 20 -8 4z" />
    <path d="M3080 1900 c0 -7 3 -10 7 -7 3 4 3 10 0 14 -4 3 -7 0 -7 -7z" />
    <path d="M3270 1883 l0 -18 9 14 9 14 5 -17 5 -16 -2 16 c0 10 -7 19 -13 22
l-13 4 0 -19z" />
    <path d="M3066 1862 c-2 -4 -1 -14 5 -22 l9 -15 0 23 c0 23 -5 28 -14 14z" />
    <path d="M3100 1830 c0 -16 2 -30 4 -30 2 0 6 14 8 30 3 17 1 30 -4 30 -4 0
-8 -13 -8 -30z" />
    <path d="M2835 1840 c3 -5 8 -10 11 -10 3 0 2 5 -1 10 -3 6 -8 10 -11 10 -3 0
-2 -4 1 -10z" />
    <path d="M3247 1816 l-6 -15 14 6 c8 3 12 9 9 14 -7 12 -11 11 -17 -5z" />
    <path d="M3080 1780 c0 -7 3 -10 7 -7 3 4 3 10 0 14 -4 3 -7 0 -7 -7z" />
    <path d="M3110 1784 c0 -6 7 -19 16 -30 l15 -19 -12 25 c-14 31 -19 36 -19 24z" />
    <path d="M3230 1781 c0 -6 4 -13 10 -16 l10 -6 -6 15 c-7 18 -14 21 -14 7z" />
    <path d="M3300 1781 c0 -6 4 -13 10 -16 l10 -6 -6 15 c-7 18 -14 21 -14 7z" />
    <path d="M3154 1742 c3 -5 1 -12 -5 -14 -5 -2 2 -15 18 -28 l28 -25 -19 22
c-10 12 -15 26 -12 32 4 5 1 13 -5 17 l-12 7 7 -11z" />
    <path d="M3100 1726 c0 -2 8 -10 18 -17 l17 -14 -14 18 c-13 16 -21 21 -21 13z" />
    <path d="M2844 1630 c0 -52 1 -74 3 -47 2 26 2 68 0 95 -2 26 -3 4 -3 -48z" />
    <path d="M3185 1710 c3 -5 8 -10 11 -10 3 0 2 5 -1 10 -3 6 -8 10 -11 10 -3 0
-2 -4 1 -10z" />
    <path d="M3233 1683 c4 -3 10 -3 14 0 3 4 0 7 -7 7 -7 0 -10 -3 -7 -7z" />
    <path d="M3155 1670 c3 -5 8 -10 11 -10 3 0 2 5 -1 10 -3 6 -8 10 -11 10 -3 0
-2 -4 1 -10z" />
    <path d="M3228 1663 c7 -3 16 -2 19 1 4 3 -2 6 -13 5 l-19 -1 13 -5z" />
    <path d="M3313 1663 c4 -3 10 -3 14 0 3 4 0 7 -7 7 -7 0 -10 -3 -7 -7z" />
    <path d="M3233 1633 c4 -3 10 -3 14 0 3 4 0 7 -7 7 -7 0 -10 -3 -7 -7z" />
    <path d="M3313 1633 c4 -3 10 -3 14 0 3 4 0 7 -7 7 -7 0 -10 -3 -7 -7z" />
    <path d="M2970 1526 c0 -2 8 -10 18 -17 l17 -14 -14 18 c-13 16 -21 21 -21 13z" />
    <path d="M3020 1476 c0 -2 8 -10 18 -17 l17 -14 -14 18 c-13 16 -21 21 -21 13z" />
    <path d="M3100 1395 c13 -14 26 -25 28 -25 3 0 -5 11 -18 25 -13 14 -26 25
-28 25 -3 0 5 -11 18 -25z" />
    <path d="M3584 1398 l-7 -11 11 7 c7 4 12 9 12 12 0 8 -9 4 -16 -8z" />
    <path d="M2710 1234 l0 -15 10 6 c6 4 8 11 5 16 -9 14 -15 11 -15 -7z" />
    <path d="M3100 1239 c0 -5 5 -7 10 -4 6 3 10 8 10 11 0 2 -4 4 -10 4 -5 0 -10
-5 -10 -11z" />
    <path d="M3224 1240 c15 -5 37 -17 47 -26 25 -23 24 -9 -1 16 l-20 20 -27 -1
-28 -1 29 -8z" />
    <path d="M3152 1210 c0 -14 2 -19 5 -12 2 6 2 18 0 25 -3 6 -5 1 -5 -13z" />
    <path d="M3499 1209 c-1 -13 0 -28 1 -34 1 -5 3 -16 3 -22 0 -7 3 -11 6 -7 6
6 2 76 -5 83 -2 2 -5 -7 -5 -20z" />
    <path d="M2730 1200 c0 -7 3 -10 7 -7 3 4 3 10 0 14 -4 3 -7 0 -7 -7z" />
    <path d="M3017 1169 l5 -26 26 6 27 5 -20 4 c-11 2 -25 12 -31 20 l-12 17 5
-26z" />
    <path d="M2696 1165 c4 -8 8 -15 10 -15 2 0 4 7 4 15 0 8 -4 15 -10 15 -5 0
-7 -7 -4 -15z" />
    <path d="M2880 1164 c-8 -10 -10 -15 -3 -11 l11 7 5 -12 c2 -7 7 -11 9 -8 3 3
2 13 -1 23 l-7 19 -14 -18z" />
    <path d="M3786 1165 c-3 -8 -1 -15 5 -15 l10 0 -7 -12 -7 -11 11 6 c5 4 8 16
5 27 -3 11 -7 20 -8 20 -2 0 -5 -7 -9 -15z" />
    <path d="M2752 1160 c0 -8 6 -31 13 -50 7 -19 13 -28 13 -20 0 8 -6 31 -13 50
-7 19 -13 28 -13 20z" />
    <path d="M2933 1164 c9 -3 17 -12 17 -21 l0 -15 -16 6 -15 6 6 -10 c3 -6 13
-10 21 -10 l15 0 -3 22 -3 23 -20 2 -20 2 18 -5z" />
    <path d="M3320 1160 c0 -7 3 -10 7 -7 3 4 3 10 0 14 -4 3 -7 0 -7 -7z" />
    <path d="M3580 1161 l-25 -7 13 -8 13 -8 13 11 c7 6 16 8 19 4 4 -3 7 -1 7 5
0 13 -3 13 -40 3z" />
    <path d="M3845 1157 l18 -14 -11 -7 c-7 -4 -16 -4 -22 -1 -5 3 -10 1 -10 -4 0
-14 23 -14 37 0 15 15 5 39 -15 39 l-16 0 19 -13z" />
    <path d="M3915 1149 c-4 -11 -4 -23 -1 -26 3 -4 6 1 6 11 0 9 10 21 23 26 l22
9 -22 0 -22 1 -6 -21z" />
    <path d="M3280 1151 c0 -17 18 -21 24 -6 l5 15 -14 0 c-8 0 -15 -4 -15 -9z" />
    <path d="M3370 1156 c0 -2 7 -6 15 -10 8 -3 15 -1 15 4 0 6 -7 10 -15 10 -8 0
-15 -2 -15 -4z" />
    <path d="M3460 1150 c0 -5 5 -10 11 -10 5 0 7 5 4 10 -3 6 -8 10 -11 10 -2 0
-4 -4 -4 -10z" />
    <path d="M3670 1149 c0 -5 5 -7 10 -4 6 3 10 8 10 11 0 2 -4 4 -10 4 -5 0 -10
-5 -10 -11z" />
    <path d="M3987 1139 l7 -23 4 13 c2 7 -1 18 -6 23 l-11 11 6 -24z" />
    <path d="M2855 1140 c3 -5 8 -10 11 -10 3 0 2 5 -1 10 -3 6 -8 10 -11 10 -3 0
-2 -4 1 -10z" />
    <path d="M2988 1115 c2 -19 6 -35 8 -35 2 0 4 16 4 35 0 19 -4 35 -8 35 -4 0
-6 -16 -4 -35z" />
    <path d="M3217 1143 c-10 -9 -9 -33 1 -33 4 0 8 9 8 20 0 23 0 22 -9 13z" />
    <path d="M3702 1120 c0 -19 2 -27 5 -17 2 9 2 25 0 35 -3 9 -5 1 -5 -18z" />
    <path d="M3738 1143 c6 -2 18 -2 25 0 6 3 1 5 -13 5 -14 0 -19 -2 -12 -5z" />
    <path d="M2720 1110 c0 -11 4 -20 9 -20 5 0 7 9 4 20 -3 11 -7 20 -9 20 -2 0
-4 -9 -4 -20z" />
    <path d="M3020 1120 c0 -7 3 -10 7 -7 3 4 3 10 0 14 -4 3 -7 0 -7 -7z" />
    <path d="M3144 1118 l-7 -11 11 7 c12 7 16 16 8 16 -3 0 -8 -5 -12 -12z" />
    <path d="M3792 1090 c0 -19 2 -27 5 -17 2 9 2 25 0 35 -3 9 -5 1 -5 -18z" />
    <path d="M2657 1090 c-3 -11 -1 -20 4 -20 5 0 9 2 9 4 0 2 3 11 6 20 3 9 2 16
-4 16 -5 0 -12 -9 -15 -20z" />
    <path d="M3301 1074 l1 -19 5 13 c3 7 2 16 -1 19 -3 4 -6 -2 -5 -13z" />
    <path d="M3911 1074 l1 -19 5 13 c3 7 2 16 -1 19 -3 4 -6 -2 -5 -13z" />
    <path d="M2745 1051 l7 -33 -13 -9 -14 -9 22 0 21 0 -10 38 c-13 48 -23 58
-13 13z" />
    <path d="M3502 1050 c0 -14 2 -19 5 -12 2 6 2 18 0 25 -3 6 -5 1 -5 -13z" />
    <path d="M3670 1056 c0 -8 -10 -22 -22 -30 -27 -19 -17 -32 11 -14 l21 13 0
22 c0 13 -2 23 -5 23 -3 0 -5 -6 -5 -14z" />
    <path d="M3880 1058 c0 -9 7 -22 17 -29 l16 -14 -13 25 c-17 34 -20 36 -20 18z" />
    <path d="M3965 1060 c-7 -11 12 -40 25 -40 4 0 11 7 14 16 l6 17 -14 -12 -14
-12 -5 15 c-3 8 -1 17 6 20 l12 4 -12 1 c-6 1 -15 -4 -18 -9z" />
    <path d="M3380 1049 c0 -9 -6 -22 -14 -28 l-14 -12 -11 18 -10 18 -1 -18 c0
-10 7 -20 16 -24 l16 -6 10 17 c5 9 13 14 19 11 12 -8 11 6 -1 25 l-10 15 0
-16z" />
    <path d="M2893 1028 l1 -26 18 1 c21 2 25 17 4 17 -8 0 -17 8 -19 18 l-5 17 1
-27z" />
    <path d="M3045 1040 l-6 -10 17 0 18 0 -12 -12 -11 -11 -15 12 -14 12 -6 -9
c-10 -17 7 -22 68 -21 l61 0 -20 8 c-11 5 -25 6 -31 4 -6 -2 -14 5 -17 16 -5
22 -22 28 -32 11z" />
    <path d="M3151 1039 c-1 -9 7 -23 17 -30 l17 -14 -11 15 c-6 8 -14 22 -17 30
l-5 15 -1 -16z" />
    <path d="M3534 1038 l-7 -11 11 7 c5 3 13 0 15 -6 l5 -13 1 18 c1 19 -14 23
-25 5z" />
    <path d="M2790 1030 c0 -5 5 -10 11 -10 5 0 7 5 4 10 -3 6 -8 10 -11 10 -2 0
-4 -4 -4 -10z" />
    <path d="M3310 1030 c0 -7 3 -10 7 -7 3 4 3 10 0 14 -4 3 -7 0 -7 -7z" />
    <path d="M2635 1020 c3 -5 8 -10 11 -10 3 0 2 5 -1 10 -3 6 -8 10 -11 10 -3 0
-2 -4 1 -10z" />
    <path d="M3705 1010 l-6 -10 15 0 c9 0 16 5 16 10 0 6 -4 10 -9 10 -6 0 -13
-4 -16 -10z" />
    <path d="M3523 1003 c4 -3 10 -3 14 0 3 4 0 7 -7 7 -7 0 -10 -3 -7 -7z" />
  </g>
  <g transform="translate(0.000000,420.000000) scale(0.100000,-0.100000)" fill="#eeedf4" stroke="none">
    <path d="M2939 2123 l-14 -18 16 12 c9 7 19 10 22 6 4 -3 7 -1 7 5 0 17 -16
15 -31 -5z" />
    <path d="M3278 2043 c7 -3 16 -2 19 1 4 3 -2 6 -13 5 l-19 -1 13 -5z" />
    <path d="M3173 1983 c4 -3 10 -3 14 0 3 4 0 7 -7 7 -7 0 -10 -3 -7 -7z" />
    <path d="M3190 1970 l-15 -10 12 0 c6 0 15 5 18 10 8 12 4 12 -15 0z" />
    <path d="M3155 1940 c-3 -5 -1 -10 4 -10 6 0 11 5 11 10 0 6 -2 10 -4 10 -3 0
-8 -4 -11 -10z" />
    <path d="M3136 1903 l-7 -18 12 12 c7 7 10 15 7 18 -3 3 -9 -2 -12 -12z" />
    <path d="M3270 1896 c0 -2 7 -7 16 -10 l15 -6 -6 10 c-6 10 -25 14 -25 6z" />
    <path d="M3104 1878 l-7 -11 11 7 c7 4 12 9 12 12 0 8 -9 4 -16 -8z" />
    <path d="M3265 1870 c-3 -5 -1 -10 4 -10 6 0 11 5 11 10 0 6 -2 10 -4 10 -3 0
-8 -4 -11 -10z" />
    <path d="M3255 1840 c-8 -13 3 -30 18 -30 l12 0 -14 9 c-7 5 -10 14 -7 20 4 6
5 11 2 11 -3 0 -8 -4 -11 -10z" />
    <path d="M3126 1797 c3 -10 9 -15 12 -12 3 3 0 11 -7 18 l-12 12 7 -18z" />
    <path d="M3146 1757 c3 -10 9 -15 12 -12 3 3 0 11 -7 18 l-12 12 7 -18z" />
    <path d="M3090 1755 c0 -5 5 -17 10 -25 5 -8 10 -10 10 -5 0 6 -5 17 -10 25
-5 8 -10 11 -10 5z" />
    <path d="M3425 1740 c-3 -5 -1 -10 4 -10 6 0 11 5 11 10 0 6 -2 10 -4 10 -3 0
-8 -4 -11 -10z" />
    <path d="M3120 1700 c0 -5 5 -10 11 -10 5 0 7 5 4 10 -3 6 -8 10 -11 10 -2 0
-4 -4 -4 -10z" />
    <path d="M3183 1683 c4 -3 10 -3 14 0 3 4 0 7 -7 7 -7 0 -10 -3 -7 -7z" />
    <path d="M3215 1670 c3 -5 8 -10 11 -10 3 0 2 5 -1 10 -3 6 -8 10 -11 10 -3 0
-2 -4 1 -10z" />
    <path d="M3384 1658 l-7 -11 11 7 c7 4 12 9 12 12 0 8 -9 4 -16 -8z" />
    <path d="M3203 1643 c4 -3 10 -3 14 0 3 4 0 7 -7 7 -7 0 -10 -3 -7 -7z" />
    <path d="M3293 1393 c4 -3 10 -3 14 0 3 4 0 7 -7 7 -7 0 -10 -3 -7 -7z" />
    <path d="M3177 1319 c7 -7 15 -10 18 -7 3 3 -2 9 -12 12 l-18 7 12 -12z" />
    <path d="M2715 1240 c3 -5 8 -10 11 -10 3 0 2 5 -1 10 -3 6 -8 10 -11 10 -3 0
-2 -4 1 -10z" />
    <path d="M3104 1238 l-7 -11 11 7 c12 7 16 16 8 16 -3 0 -8 -5 -12 -12z" />
    <path d="M3286 1223 l-7 -18 12 12 c7 7 10 15 7 18 -3 3 -9 -2 -12 -12z" />
    <path d="M3280 1186 c0 -9 5 -16 10 -16 6 0 10 4 10 9 0 6 -4 13 -10 16 l-10
6 0 -15z" />
    <path d="M3100 1171 c0 -11 4 -22 9 -25 l8 -5 -5 24 c-5 30 -12 33 -12 6z" />
    <path d="M2745 1170 c3 -5 8 -10 11 -10 3 0 2 5 -1 10 -3 6 -8 10 -11 10 -3 0
-2 -4 1 -10z" />
    <path d="M2884 1168 l-7 -11 11 7 c12 7 16 16 8 16 -3 0 -8 -5 -12 -12z" />
    <path d="M3151 1154 l1 -19 5 13 c3 7 2 16 -1 19 -3 4 -6 -2 -5 -13z" />
    <path d="M2705 1150 c3 -5 8 -10 11 -10 3 0 2 5 -1 10 -3 6 -8 10 -11 10 -3 0
-2 -4 1 -10z" />
    <path d="M2975 1150 l-6 -10 16 0 16 0 -6 10 c-3 6 -8 10 -10 10 -2 0 -7 -4
-10 -10z" />
    <path d="M3220 1150 c0 -7 3 -10 7 -7 3 4 3 10 0 14 -4 3 -7 0 -7 -7z" />
    <path d="M3285 1151 c-3 -5 -2 -12 3 -15 5 -3 9 1 9 9 0 17 -3 19 -12 6z" />
    <path d="M3450 1150 c0 -5 5 -10 10 -10 6 0 10 5 10 10 0 6 -4 10 -10 10 -5 0
-10 -4 -10 -10z" />
    <path d="M3566 1148 c3 -4 9 -8 15 -8 5 0 9 4 9 8 0 5 -7 9 -15 9 -8 0 -12 -4
-9 -9z" />
    <path d="M3674 1148 l-7 -11 11 7 c12 7 16 16 8 16 -3 0 -8 -5 -12 -12z" />
    <path d="M3960 1151 c0 -6 4 -13 10 -16 l10 -6 -6 15 c-7 18 -14 21 -14 7z" />
    <path d="M2755 1140 c3 -5 8 -10 11 -10 3 0 2 5 -1 10 -3 6 -8 10 -11 10 -3 0
-2 -4 1 -10z" />
    <path d="M2890 1139 c0 -5 5 -7 10 -4 6 3 10 8 10 11 0 2 -4 4 -10 4 -5 0 -10
-5 -10 -11z" />
    <path d="M3820 1130 c0 -7 3 -10 7 -7 3 4 3 10 0 14 -4 3 -7 0 -7 -7z" />
    <path d="M3880 1130 c0 -7 3 -10 7 -7 3 4 3 10 0 14 -4 3 -7 0 -7 -7z" />
    <path d="M3215 1120 c3 -5 8 -10 11 -10 3 0 2 5 -1 10 -3 6 -8 10 -11 10 -3 0
-2 -4 1 -10z" />
    <path d="M3765 1120 c3 -5 8 -10 11 -10 3 0 2 5 -1 10 -3 6 -8 10 -11 10 -3 0
-2 -4 1 -10z" />
    <path d="M3995 1120 c3 -5 8 -10 11 -10 3 0 2 5 -1 10 -3 6 -8 10 -11 10 -3 0
-2 -4 1 -10z" />
    <path d="M2765 1110 c3 -5 8 -10 11 -10 3 0 2 5 -1 10 -3 6 -8 10 -11 10 -3 0
-2 -4 1 -10z" />
    <path d="M3580 1110 c0 -7 3 -10 7 -7 3 4 3 10 0 14 -4 3 -7 0 -7 -7z" />
    <path d="M2663 1103 c4 -3 10 -3 14 0 3 4 0 7 -7 7 -7 0 -10 -3 -7 -7z" />
    <path d="M2725 1100 c3 -5 8 -10 11 -10 3 0 2 5 -1 10 -3 6 -8 10 -11 10 -3 0
-2 -4 1 -10z" />
    <path d="M2862 1090 c0 -14 2 -19 5 -12 2 6 2 18 0 25 -3 6 -5 1 -5 -13z" />
    <path d="M2892 1090 c0 -14 2 -19 5 -12 2 6 2 18 0 25 -3 6 -5 1 -5 -13z" />
    <path d="M3950 1093 l-25 -13 22 0 c12 0 25 5 28 11 11 16 2 17 -25 2z" />
    <path d="M3385 1089 c-4 -6 -5 -12 -2 -15 2 -3 7 2 10 11 7 17 1 20 -8 4z" />
    <path d="M3022 1065 l0 -30 5 18 c2 9 2 23 0 30 -3 6 -5 -1 -5 -18z" />
    <path d="M2653 1073 c4 -3 10 -3 14 0 3 4 0 7 -7 7 -7 0 -10 -3 -7 -7z" />
    <path d="M3415 1070 c3 -5 8 -10 11 -10 3 0 2 5 -1 10 -3 6 -8 10 -11 10 -3 0
-2 -4 1 -10z" />
    <path d="M2745 1050 c3 -5 8 -10 11 -10 3 0 2 5 -1 10 -3 6 -8 10 -11 10 -3 0
-2 -4 1 -10z" />
    <path d="M2861 1044 l1 -19 5 13 c3 7 2 16 -1 19 -3 4 -6 -2 -5 -13z" />
    <path d="M3104 1048 l-7 -11 11 7 c12 7 16 16 8 16 -3 0 -8 -5 -12 -12z" />
    <path d="M3305 1040 c3 -5 8 -10 11 -10 3 0 2 5 -1 10 -3 6 -8 10 -11 10 -3 0
-2 -4 1 -10z" />
    <path d="M3330 1040 c0 -7 3 -10 7 -7 3 4 3 10 0 14 -4 3 -7 0 -7 -7z" />
    <path d="M3377 1043 c-4 -3 -7 -11 -7 -16 0 -6 3 -7 7 -4 3 4 13 1 22 -6 l16
-12 -15 20 c-8 11 -15 21 -16 23 0 1 -4 -1 -7 -5z" />
    <path d="M3420 1040 c0 -7 3 -10 7 -7 3 4 3 10 0 14 -4 3 -7 0 -7 -7z" />
    <path d="M3543 1043 c4 -3 10 -3 14 0 3 4 0 7 -7 7 -7 0 -10 -3 -7 -7z" />
    <path d="M3883 1043 c4 -3 10 -3 14 0 3 4 0 7 -7 7 -7 0 -10 -3 -7 -7z" />
    <path d="M3971 1043 c-1 -17 16 -25 25 -12 l7 12 -11 -7 c-5 -3 -13 0 -15 6
l-5 13 -1 -12z" />
    <path d="M3648 1027 c-16 -6 -28 -15 -28 -20 l0 -8 23 6 c23 7 59 36 42 34 -6
-1 -22 -6 -37 -12z" />
    <path d="M3757 1023 l-16 -18 39 -3 39 -2 7 12 7 13 -8 -7 c-4 -4 -14 0 -22
10 l-13 17 6 -17 6 -18 -17 0 -17 0 6 15 c7 20 3 19 -17 -2z" />
    <path d="M2798 1023 c6 -2 10 -9 6 -14 -3 -5 4 -9 15 -9 12 0 21 5 21 11 0 5
-4 8 -9 4 -5 -3 -12 -1 -16 5 -3 5 -12 10 -18 9 l-12 -1 13 -5z" />
    <path d="M2867 1008 c6 -10 35 -10 51 0 l13 9 -35 -1 c-19 -1 -32 -4 -29 -8z" />
    <path d="M3025 1010 c3 -5 11 -10 16 -10 6 0 7 5 4 10 -3 6 -11 10 -16 10 -6
0 -7 -4 -4 -10z" />
    <path d="M3064 1008 l-7 -11 11 7 c7 4 12 9 12 12 0 8 -9 4 -16 -8z" />
    <path d="M3175 1010 c-3 -5 -1 -10 4 -10 6 0 11 5 11 10 0 6 -2 10 -4 10 -3 0
-8 -4 -11 -10z" />
    <path d="M3325 1010 l-6 -10 15 0 c9 0 16 5 16 10 0 6 -4 10 -9 10 -6 0 -13
-4 -16 -10z" />
    <path d="M3425 1010 c3 -5 8 -10 11 -10 2 0 4 5 4 10 0 6 -5 10 -11 10 -5 0
-7 -4 -4 -10z" />
    <path d="M3710 1010 l-15 -10 18 0 c9 0 17 5 17 10 0 12 -1 12 -20 0z" />
    <path d="M3925 1010 c4 -6 11 -8 16 -5 14 9 11 15 -7 15 l-15 0 6 -10z" />
    <path d="M2758 1003 c7 -3 16 -2 19 1 4 3 -2 6 -13 5 l-19 -1 13 -5z" />
    <path d="M3503 1003 c4 -3 10 -3 14 0 3 4 0 7 -7 7 -7 0 -10 -3 -7 -7z" />
  </g>
  <g transform="translate(0.000000,420.000000) scale(0.100000,-0.100000)" fill="#7770af" stroke="none">
    <path d="M3270 1870 c0 -7 3 -10 7 -7 3 4 3 10 0 14 -4 3 -7 0 -7 -7z" />
    <path d="M3280 1840 c0 -7 3 -10 7 -7 3 4 3 10 0 14 -4 3 -7 0 -7 -7z" />
    <path d="M3121 1814 l1 -19 5 13 c3 7 2 16 -1 19 -3 4 -6 -2 -5 -13z" />
    <path d="M3070 1810 c0 -7 3 -10 7 -7 3 4 3 10 0 14 -4 3 -7 0 -7 -7z" />
    <path d="M3300 1790 c0 -7 3 -10 7 -7 3 4 3 10 0 14 -4 3 -7 0 -7 -7z" />
    <path d="M3150 1720 c0 -7 3 -10 7 -7 3 4 3 10 0 14 -4 3 -7 0 -7 -7z" />
    <path d="M3255 1670 l-20 -9 23 0 c12 -1 22 4 22 9 0 6 -1 10 -2 9 -2 0 -12
-4 -23 -9z" />
    <path d="M2913 1523 c15 -2 37 -2 50 0 12 2 0 4 -28 4 -27 0 -38 -2 -22 -4z" />
    <path d="M3118 1243 c7 -3 16 -2 19 1 4 3 -2 6 -13 5 l-19 -1 13 -5z" />
    <path d="M3231 1247 c2 -1 11 -8 20 -15 l16 -12 0 15 0 15 -20 0 c-11 0 -18
-1 -16 -3z" />
    <path d="M2714 1228 l-7 -11 11 7 c7 4 12 9 12 12 0 8 -9 4 -16 -8z" />
    <path d="M3280 1210 c0 -7 3 -10 7 -7 3 4 3 10 0 14 -4 3 -7 0 -7 -7z" />
    <path d="M2700 1200 c0 -7 3 -10 7 -7 3 4 3 10 0 14 -4 3 -7 0 -7 -7z" />
    <path d="M2996 1171 l-17 -19 13 -8 13 -7 -8 8 c-4 5 0 17 10 27 9 10 14 18
11 18 -3 0 -13 -9 -22 -19z" />
    <path d="M3501 1174 l1 -19 5 13 c3 7 2 16 -1 19 -3 4 -6 -2 -5 -13z" />
    <path d="M3020 1160 c0 -7 3 -10 7 -7 3 4 3 10 0 14 -4 3 -7 0 -7 -7z" />
    <path d="M3293 1153 c4 -3 10 -3 14 0 3 4 0 7 -7 7 -7 0 -10 -3 -7 -7z" />
    <path d="M3323 1120 c0 -25 2 -35 4 -22 2 12 2 32 0 45 -2 12 -4 2 -4 -23z" />
    <path d="M3392 1123 l1 -38 4 34 5 35 9 -15 9 -14 0 18 0 17 -15 0 -15 0 2
-37z" />
    <path d="M3580 1149 c0 -5 5 -7 10 -4 6 3 10 8 10 11 0 2 -4 4 -10 4 -5 0 -10
-5 -10 -11z" />
    <path d="M3680 1156 c0 -2 7 -6 15 -10 8 -3 15 -1 15 4 0 6 -7 10 -15 10 -8 0
-15 -2 -15 -4z" />
    <path d="M3783 1153 c4 -3 10 -3 14 0 3 4 0 7 -7 7 -7 0 -10 -3 -7 -7z" />
    <path d="M2890 1140 c0 -7 3 -10 7 -7 3 4 3 10 0 14 -4 3 -7 0 -7 -7z" />
    <path d="M3112 1125 l0 -30 5 18 c2 9 2 23 0 30 -3 6 -5 -1 -5 -18z" />
    <path d="M3502 1120 c0 -19 2 -27 5 -17 2 9 2 25 0 35 -3 9 -5 1 -5 -18z" />
    <path d="M3910 1140 c0 -7 3 -10 7 -7 3 4 3 10 0 14 -4 3 -7 0 -7 -7z" />
    <path d="M3790 1130 c0 -7 3 -10 7 -7 3 4 3 10 0 14 -4 3 -7 0 -7 -7z" />
    <path d="M3972 1115 l0 -30 5 18 c2 9 2 23 0 30 -3 6 -5 -1 -5 -18z" />
    <path d="M3881 1114 l1 -19 5 13 c3 7 2 16 -1 19 -3 4 -6 -2 -5 -13z" />
    <path d="M3142 1090 c0 -19 2 -27 5 -17 2 9 2 25 0 35 -3 9 -5 1 -5 -18z" />
    <path d="M3773 1075 c0 -27 2 -38 4 -22 2 15 2 37 0 50 -2 12 -4 0 -4 -28z" />
    <path d="M3301 1094 l1 -19 5 13 c3 7 2 16 -1 19 -3 4 -6 -2 -5 -13z" />
    <path d="M3412 1090 c0 -14 2 -19 5 -12 2 6 2 18 0 25 -3 6 -5 1 -5 -13z" />
    <path d="M2770 1080 c0 -7 3 -10 7 -7 3 4 3 10 0 14 -4 3 -7 0 -7 -7z" />
    <path d="M3591 1074 l1 -19 5 13 c3 7 2 16 -1 19 -3 4 -6 -2 -5 -13z" />
    <path d="M3612 1065 l0 -30 5 18 c2 9 2 23 0 30 -3 6 -5 -1 -5 -18z" />
    <path d="M3702 1060 c0 -19 2 -27 5 -17 2 9 2 25 0 35 -3 9 -5 1 -5 -18z" />
    <path d="M3111 1064 l1 -19 5 13 c3 7 2 16 -1 19 -3 4 -6 -2 -5 -13z" />
    <path d="M3482 1060 c0 -14 2 -19 5 -12 2 6 2 18 0 25 -3 6 -5 1 -5 -13z" />
    <path d="M3664 1036 l-11 -25 17 11 c10 7 16 18 13 25 -3 7 -6 13 -7 13 0 0
-6 -11 -12 -24z" />
    <path d="M3791 1044 l1 -19 5 13 c3 7 2 16 -1 19 -3 4 -6 -2 -5 -13z" />
    <path d="M3910 1050 c0 -7 3 -10 7 -7 3 4 3 10 0 14 -4 3 -7 0 -7 -7z" />
    <path d="M3376 1033 l-7 -18 12 12 c7 7 10 15 7 18 -3 3 -9 -2 -12 -12z" />
    <path d="M3495 1030 c-3 -5 -1 -10 4 -10 6 0 11 5 11 10 0 6 -2 10 -4 10 -3 0
-8 -4 -11 -10z" />
    <path d="M3920 1020 c0 -5 5 -10 11 -10 5 0 7 5 4 10 -3 6 -8 10 -11 10 -2 0
-4 -4 -4 -10z" />
    <path d="M3020 1010 c8 -5 20 -10 25 -10 6 0 3 5 -5 10 -8 5 -19 10 -25 10 -5
0 -3 -5 5 -10z" />
    <path d="M3095 1010 c-3 -5 -1 -10 4 -10 6 0 11 5 11 10 0 6 -2 10 -4 10 -3 0
-8 -4 -11 -10z" />
    <path d="M3330 1010 c0 -5 5 -10 11 -10 5 0 7 5 4 10 -3 6 -8 10 -11 10 -2 0
-4 -4 -4 -10z" />
    <path d="M3400 1010 c0 -5 5 -10 11 -10 5 0 7 5 4 10 -3 6 -8 10 -11 10 -2 0
-4 -4 -4 -10z" />
    <path d="M3620 1010 c0 -5 5 -10 11 -10 5 0 7 5 4 10 -3 6 -8 10 -11 10 -2 0
-4 -4 -4 -10z" />
  </g>
  <g transform="translate(0.000000,420.000000) scale(0.100000,-0.100000)" fill="#9ba3c8" stroke="none">
    <path d="M2779 1963 l-14 -18 18 14 c16 13 21 21 13 21 -2 0 -10 -8 -17 -17z" />
    <path d="M3104 1958 l-7 -11 11 7 c7 4 12 9 12 12 0 8 -9 4 -16 -8z" />
    <path d="M3163 1955 l0 -15 14 11 c7 6 13 13 13 15 0 2 -6 4 -13 4 -8 0 -14
-7 -14 -15z" />
    <path d="M3134 1938 l-7 -11 11 7 c7 4 12 9 12 12 0 8 -9 4 -16 -8z" />
    <path d="M3110 1890 c0 -7 3 -10 7 -7 3 4 3 10 0 14 -4 3 -7 0 -7 -7z" />
    <path d="M3066 1863 l-7 -18 12 12 c7 7 10 15 7 18 -3 3 -9 -2 -12 -12z" />
    <path d="M3110 1855 c-7 -9 -10 -18 -6 -22 3 -3 6 0 7 8 l0 14 9 -20 9 -20 0
28 c1 15 -1 27 -3 27 -2 0 -9 -7 -16 -15z" />
    <path d="M3071 1824 l1 -19 5 13 c3 7 2 16 -1 19 -3 4 -6 -2 -5 -13z" />
    <path d="M3155 1710 c3 -5 8 -10 11 -10 3 0 2 5 -1 10 -3 6 -8 10 -11 10 -3 0
-2 -4 1 -10z" />
    <path d="M3270 1670 c0 -7 3 -10 7 -7 3 4 3 10 0 14 -4 3 -7 0 -7 -7z" />
    <path d="M3298 1663 c7 -3 16 -2 19 1 4 3 -2 6 -13 5 l-19 -1 13 -5z" />
    <path d="M2868 1523 c6 -2 18 -2 25 0 6 3 1 5 -13 5 -14 0 -19 -2 -12 -5z" />
    <path d="M3005 1490 c10 -11 20 -20 23 -20 3 0 -3 9 -13 20 -10 11 -20 20 -23
20 -3 0 3 -9 13 -20z" />
    <path d="M3219 1333 l-14 -18 18 14 c9 7 17 15 17 17 0 8 -8 3 -21 -13z" />
    <path d="M3136 1243 c5 -5 12 -12 16 -18 l8 -10 0 18 0 17 -17 0 -16 0 9 -7z" />
    <path d="M3282 1190 c0 -14 2 -19 5 -12 2 6 2 18 0 25 -3 6 -5 1 -5 -13z" />
    <path d="M2994 1168 l-7 -11 11 7 c12 7 16 16 8 16 -3 0 -8 -5 -12 -12z" />
    <path d="M3955 1160 c3 -5 8 -10 11 -10 2 0 4 5 4 10 0 6 -5 10 -11 10 -5 0
-7 -4 -4 -10z" />
    <path d="M3580 1150 c0 -7 3 -10 7 -7 3 4 3 10 0 14 -4 3 -7 0 -7 -7z" />
    <path d="M3613 1120 c0 -25 2 -35 4 -22 2 12 2 32 0 45 -2 12 -4 2 -4 -23z" />
    <path d="M3700 1150 c0 -7 3 -10 7 -7 3 4 3 10 0 14 -4 3 -7 0 -7 -7z" />
    <path d="M2843 1143 c4 -3 10 -3 14 0 3 4 0 7 -7 7 -7 0 -10 -3 -7 -7z" />
    <path d="M3412 1120 c0 -14 2 -19 5 -12 2 6 2 18 0 25 -3 6 -5 1 -5 -13z" />
    <path d="M3790 1120 c0 -7 3 -10 7 -7 3 4 3 10 0 14 -4 3 -7 0 -7 -7z" />
    <path d="M3112 1090 c0 -14 2 -19 5 -12 2 6 2 18 0 25 -3 6 -5 1 -5 -13z" />
    <path d="M3502 1080 c0 -14 2 -19 5 -12 2 6 2 18 0 25 -3 6 -5 1 -5 -13z" />
    <path d="M3700 1090 c0 -7 3 -10 7 -7 3 4 3 10 0 14 -4 3 -7 0 -7 -7z" />
    <path d="M3590 1060 c0 -7 3 -10 7 -7 3 4 3 10 0 14 -4 3 -7 0 -7 -7z" />
    <path d="M3790 1060 c0 -7 3 -10 7 -7 3 4 3 10 0 14 -4 3 -7 0 -7 -7z" />
    <path d="M3910 1060 c0 -7 3 -10 7 -7 3 4 3 10 0 14 -4 3 -7 0 -7 -7z" />
    <path d="M3410 1010 l-15 -10 12 0 c6 0 15 5 18 10 8 12 4 12 -15 0z" />
    <path d="M3093 1003 c4 -3 10 -3 14 0 3 4 0 7 -7 7 -7 0 -10 -3 -7 -7z" />
    <path d="M3173 1003 c4 -3 10 -3 14 0 3 4 0 7 -7 7 -7 0 -10 -3 -7 -7z" />
    <path d="M3513 1003 c4 -3 10 -3 14 0 3 4 0 7 -7 7 -7 0 -10 -3 -7 -7z" />
    <path d="M3693 1003 c4 -3 10 -3 14 0 3 4 0 7 -7 7 -7 0 -10 -3 -7 -7z" />
  </g>
  <g transform="translate(0.000000,420.000000) scale(0.100000,-0.100000)" fill="#fcf1e0" stroke="none">
    <path d="M3650 2151 l65 -6 6 -60 6 -60 1 56 2 55 -12 12 -12 12 -60 -2 -61
-1 65 -6z" />
    <path d="M3298 2043 c7 -3 16 -2 19 1 4 3 -2 6 -13 5 l-19 -1 13 -5z" />
    <path d="M3343 2033 c4 -3 10 -3 14 0 3 4 0 7 -7 7 -7 0 -10 -3 -7 -7z" />
    <path d="M3243 2013 c4 -3 10 -3 14 0 3 4 0 7 -7 7 -7 0 -10 -3 -7 -7z" />
    <path d="M3313 2013 c4 -3 10 -3 14 0 3 4 0 7 -7 7 -7 0 -10 -3 -7 -7z" />
    <path d="M3395 2010 c3 -5 8 -10 11 -10 3 0 2 5 -1 10 -3 6 -8 10 -11 10 -3 0
-2 -4 1 -10z" />
    <path d="M3343 2003 c4 -3 10 -3 14 0 3 4 0 7 -7 7 -7 0 -10 -3 -7 -7z" />
    <path d="M3293 1993 c4 -3 10 -3 14 0 3 4 0 7 -7 7 -7 0 -10 -3 -7 -7z" />
    <path d="M3333 1983 c4 -3 10 -3 14 0 3 4 0 7 -7 7 -7 0 -10 -3 -7 -7z" />
    <path d="M3393 1978 c9 -7 24 -22 33 -33 8 -11 12 -13 8 -5 -11 24 -36 50 -47
50 -6 0 -3 -6 6 -12z" />
    <path d="M3455 1950 c3 -5 8 -10 11 -10 3 0 2 5 -1 10 -3 6 -8 10 -11 10 -3 0
-2 -4 1 -10z" />
    <path d="M3418 1915 c5 -11 12 -27 15 -35 l5 -15 1 16 c1 8 -6 24 -15 35 l-15
19 9 -20z" />
    <path d="M3447 1899 l7 -23 4 13 c2 7 -1 18 -6 23 l-11 11 6 -24z" />
    <path d="M3480 1890 c0 -7 3 -10 7 -7 3 4 3 10 0 14 -4 3 -7 0 -7 -7z" />
    <path d="M3456 1861 c-4 -7 -5 -15 -2 -18 9 -9 19 4 14 18 l-4 13 -8 -13z" />
    <path d="M3760 1804 c25 -27 47 -49 50 -47 2 2 -18 25 -45 51 l-49 47 44 -51z" />
    <path d="M3430 1790 c0 -7 3 -10 7 -7 3 4 3 10 0 14 -4 3 -7 0 -7 -7z" />
    <path d="M3441 1763 l-11 -28 15 19 c8 11 15 23 15 28 0 15 -7 8 -19 -19z" />
    <path d="M3390 1720 c0 -7 3 -10 7 -7 3 4 3 10 0 14 -4 3 -7 0 -7 -7z" />
    <path d="M3735 1668 l-60 -63 63 60 c58 55 67 65 59 65 -1 0 -29 -28 -62 -62z" />
    <path d="M3644 1578 l-19 -23 23 19 c21 18 27 26 19 26 -2 0 -12 -10 -23 -22z" />
    <path d="M3595 1539 c-11 -17 1 -21 15 -4 l12 15 -10 0 c-6 0 -14 -5 -17 -11z" />
  </g>
  <g transform="translate(0.000000,420.000000) scale(0.100000,-0.100000)" fill="#edb99e" stroke="none">
    <path d="M3304 2308 l-19 -23 23 19 c12 11 22 21 22 23 0 8 -8 2 -26 -19z" />
    <path d="M3243 2043 c4 -3 10 -3 14 0 3 4 0 7 -7 7 -7 0 -10 -3 -7 -7z" />
    <path d="M3313 2043 c4 -3 10 -3 14 0 3 4 0 7 -7 7 -7 0 -10 -3 -7 -7z" />
    <path d="M3724 1940 c0 -58 1 -81 3 -52 2 28 2 76 0 105 -2 28 -3 5 -3 -53z" />
    <path d="M3258 2013 c7 -3 16 -2 19 1 4 3 -2 6 -13 5 l-19 -1 13 -5z" />
    <path d="M3298 2013 c7 -3 16 -2 19 1 4 3 -2 6 -13 5 l-19 -1 13 -5z" />
    <path d="M3253 1993 c4 -3 10 -3 14 0 3 4 0 7 -7 7 -7 0 -10 -3 -7 -7z" />
    <path d="M3303 1993 c4 -3 10 -3 14 0 3 4 0 7 -7 7 -7 0 -10 -3 -7 -7z" />
    <path d="M3375 1990 c3 -5 8 -10 11 -10 3 0 2 5 -1 10 -3 6 -8 10 -11 10 -3 0
-2 -4 1 -10z" />
    <path d="M3420 1996 c0 -2 8 -10 18 -17 l17 -14 -14 18 c-13 16 -21 21 -21 13z" />
    <path d="M3395 1950 c3 -5 8 -10 11 -10 3 0 2 5 -1 10 -3 6 -8 10 -11 10 -3 0
-2 -4 1 -10z" />
    <path d="M3440 1848 c0 -8 7 -15 15 -15 18 0 15 19 -3 25 -7 2 -12 -3 -12 -10z" />
    <path d="M3450 1790 c0 -7 3 -10 7 -7 3 4 3 10 0 14 -4 3 -7 0 -7 -7z" />
    <path d="M3444 1708 l-7 -11 11 7 c12 7 16 16 8 16 -3 0 -8 -5 -12 -12z" />
    <path d="M3669 1603 l-14 -18 18 14 c16 13 21 21 13 21 -2 0 -10 -8 -17 -17z" />
    <path d="M3625 1560 c-4 -6 -11 -8 -16 -5 -5 4 -9 1 -9 -4 0 -16 16 -13 30 4
7 8 10 15 7 15 -3 0 -9 -5 -12 -10z" />
  </g>
  <g transform="translate(0.000000,420.000000) scale(0.100000,-0.100000)" fill="#8f53a1" stroke="none">
    <path d="M2967 2143 c-4 -3 -7 -71 -7 -150 l0 -143 58 2 57 2 -52 3 -53 4 0
139 0 138 13 5 12 5 -11 1 c-6 1 -14 -2 -17 -6z" />
    <path d="M3040 2096 c0 -2 8 -10 18 -17 l17 -14 -14 18 c-13 16 -21 21 -21 13z" />
    <path d="M3151 1956 l-12 -14 10 -6 c5 -4 12 -2 16 4 3 5 3 10 -2 11 -4 0 1 4
12 9 l20 9 -16 0 c-9 1 -22 -5 -28 -13z" />
    <path d="M2760 1930 c0 -7 3 -10 7 -7 3 4 3 10 0 14 -4 3 -7 0 -7 -7z" />
    <path d="M3114 1870 l0 -20 10 10 10 10 -10 10 -10 10 0 -20z" />
  </g>
  <g transform="translate(0.000000,420.000000) scale(0.100000,-0.100000)" fill="#d0d751" stroke="none">
    <path d="M3450 1850 c0 -7 3 -10 7 -7 3 4 3 10 0 14 -4 3 -7 0 -7 -7z" />
    <path d="M3490 1852 c0 -4 18 -6 40 -4 22 2 40 6 40 8 0 2 -18 4 -40 4 -22 0
-40 -3 -40 -8z" />
    <path d="M3600 1683 c-3 -84 -1 -149 3 -144 4 4 6 72 5 152 l-3 144 -5 -152z" />
    <path d="M3800 1750 c0 -7 3 -10 7 -7 3 4 3 10 0 14 -4 3 -7 0 -7 -7z" />
    <path d="M3416 1738 c3 -5 10 -6 15 -3 13 9 11 12 -6 12 -8 0 -12 -4 -9 -9z" />
  </g>
  <g transform="translate(0.000000,420.000000) scale(0.100000,-0.100000)" fill="#8bc85b" stroke="none">
    <path d="M3443 1835 c-3 -9 -3 -18 -1 -21 3 -3 8 4 11 16 6 23 -1 27 -10 5z" />
    <path d="M3491 1834 l1 -19 5 13 c3 7 2 16 -1 19 -3 4 -6 -2 -5 -13z" />
    <path d="M3495 1612 c39 -40 78 -78 88 -83 l17 -10 0 11 c0 5 -6 10 -12 10 -7
0 -46 33 -88 73 l-75 72 70 -73z" />
  </g>
</svg>